<?xml version="1.0" encoding="UTF-8" standalone="no"?>
<!-- Created with Inkscape (http://www.inkscape.org/) -->

<svg
   width="1920"
   height="1080"
   viewBox="0 0 1920 1080"
   version="1.1"
   id="svg5"
   inkscape:version="1.2.1 (9c6d41e410, 2022-07-14)"
   sodipodi:docname="draw.svg"
   xmlns:inkscape="http://www.inkscape.org/namespaces/inkscape"
   xmlns:sodipodi="http://sodipodi.sourceforge.net/DTD/sodipodi-0.dtd"
   xmlns="http://www.w3.org/2000/svg"
   xmlns:svg="http://www.w3.org/2000/svg">
  <sodipodi:namedview
     id="namedview7"
     pagecolor="#ffffff"
     bordercolor="#000000"
     borderopacity="0.25"
     inkscape:showpageshadow="2"
     inkscape:pageopacity="1"
     inkscape:pagecheckerboard="0"
     inkscape:deskcolor="#d1d1d1"
     inkscape:document-units="px"
     showgrid="false"
     showguides="true"
     inkscape:zoom="0.49350161"
     inkscape:cx="788.24465"
     inkscape:cy="550.15018"
     inkscape:window-width="1920"
     inkscape:window-height="991"
     inkscape:window-x="-9"
     inkscape:window-y="-9"
     inkscape:window-maximized="1"
     inkscape:current-layer="layer1" />
  <defs
     id="defs2">
    <rect
       x="901.71945"
       y="530.89999"
       width="1126.6427"
       height="237.08129"
       id="rect1140" />
  </defs>
  <g
     inkscape:label="Capa 1"
     inkscape:groupmode="layer"
     id="layer1">
    <path
       style="fill:#4aacff;fill-opacity:0.106628;stroke:none;stroke-width:7.09218;stroke-dasharray:none;stroke-opacity:1"
       d="M 226.78059,898.49383 226.301,892.71057 343.84456,727.77503 C 459.02755,566.15181 461.45462,562.83949 464.69972,562.83949 c 1.82138,0 4.49115,-0.44847 5.93282,-0.99659 2.35846,-0.89667 14.17089,5.33772 117.83248,62.18995 110.29729,60.49151 115.23918,63.32306 115.8659,66.38741 0.36006,1.76049 1.50521,4.14074 2.54479,5.28946 8.80579,9.73029 22.55323,3.55893 21.50246,-9.65267 l -0.38629,-4.85702 112.32049,-126.30264 c 61.77627,-69.46646 113.12932,-127.14277 114.11789,-128.16958 1.67708,-1.74196 2.00629,-1.75892 4.91785,-0.25329 4.15696,2.14965 9.10713,2.03264 12.94213,-0.30592 l 3.1355,-1.91198 113.87876,55.99964 113.8788,55.99963 0.8622,3.64577 c 1.2775,5.40205 6.6992,9.76665 12.132,9.76665 4.1611,0 8.1005,-1.85952 10.4197,-4.91839 0.9528,-1.25676 17.0307,1.09804 112.9682,16.54551 102.0504,16.43177 112.0793,18.21602 114.3902,20.35126 5.9585,5.50574 13.7459,5.18442 18.7597,-0.77408 2.3898,-2.84013 2.6578,-3.90529 2.3536,-9.35268 l -0.3434,-6.14752 107.3958,-188.68645 107.3958,-188.68645 12.4113,-0.0161 12.4113,-0.0161 V 546.12222 904.27708 H 970.79994 227.26019 Z"
       id="path4606"
       inkscape:export-filename="draw.png"
       inkscape:export-xdpi="96"
       inkscape:export-ydpi="96" />
    <path
       style="fill:#ffbe58;stroke:#006ef0;stroke-width:7;stroke-dasharray:none;stroke-opacity:1"
       d="M 214.85125,901.74416 466.11689,549.16173"
       id="path814" />
    <path
       style="fill:#58a4ff;fill-opacity:1;stroke:#006ef0;stroke-width:7;stroke-dasharray:none;stroke-opacity:1"
       d="M 1712.3134,139.84188 C 1463.0741,577.53043 1463.0741,577.53043 1463.0741,577.53043"
       id="path826" />
    <path
       style="fill:#ffbe58;stroke:#006ef0;stroke-width:7;stroke-dasharray:none;stroke-opacity:1"
       d="M 1465.1004,577.53043 C 1213.8348,537.00371 1213.8348,537.00371 1213.8348,537.00371"
       id="path824" />
    <path
       style="fill:#ffbe58;stroke:#006ef0;stroke-width:7;stroke-dasharray:none;stroke-opacity:1"
       d="M 1213.8348,537.00371 C 962.56918,413.39722 962.56918,413.39722 962.56918,413.39722"
       id="path820" />
    <path
       style="fill:#ffbe58;stroke:#006ef0;stroke-width:7;stroke-dasharray:none;stroke-opacity:1"
       d="M 962.56918,411.37089 C 717.38254,686.95256 717.38254,686.95256 717.38254,686.95256"
       id="path818" />
    <circle
       style="fill:#ffbe58;stroke:none;stroke-width:1.99937;stroke-opacity:1"
       id="path880-3-2"
       cx="1462.9254"
       cy="573.13434"
       r="12.158015" />
    <circle
       style="fill:#ffbe58;stroke:none;stroke-width:1.99937;stroke-opacity:1"
       id="path880-3-6"
       cx="1713.6716"
       cy="138.98506"
       r="12.158015" />
    <circle
       style="fill:#ffbe58;stroke:none;stroke-width:1.99937;stroke-opacity:1"
       id="path880-3-4"
       cx="1216.4775"
       cy="537.31342"
       r="12.158015" />
    <text
       xml:space="preserve"
       id="text1138"
       style="font-size:160px;font-family:Futura;-inkscape-font-specification:Futura;white-space:pre;shape-inside:url(#rect1140);fill:#58a4ff;fill-opacity:1;stroke:#000000;stroke-width:1.99937;stroke-opacity:1"
       transform="translate(-122.63501,150.12726)"><tspan
         x="901.71875"
         y="678.97551"
         id="tspan5510"><tspan
           style="font-weight:bold;font-family:Inter;-inkscape-font-specification:'Inter Bold';stroke:none"
           id="tspan5508">InfoChange</tspan></tspan></text>
    <path
       style="fill:#ffbe58;stroke:#006ef0;stroke-width:7;stroke-dasharray:none;stroke-opacity:1"
       d="M 715.3562,688.9789 C 464.09056,551.18806 464.09056,551.18806 464.09056,551.18806"
       id="path816" />
    <circle
       style="fill:#ffbe58;stroke:none;stroke-width:1.99937;stroke-opacity:1"
       id="path880"
       cx="214.77412"
       cy="899.76001"
       r="12.158015" />
    <circle
       style="fill:#ffbe58;stroke:none;stroke-width:1.99937;stroke-opacity:1"
       id="path880-3"
       cx="465.67166"
       cy="550.20892"
       r="12.158015" />
    <circle
       style="fill:#ffbe58;stroke:none;stroke-width:1.99937;stroke-opacity:1"
       id="path880-3-7"
       cx="716.41791"
       cy="687.76117"
       r="12.158015" />
    <circle
       style="fill:#ffbe58;stroke:none;stroke-width:1.99937;stroke-opacity:1"
       id="path880-3-0"
       cx="965.73132"
       cy="415.52243"
       r="12.158015" />
    <path
       style="fill:#4aacff;fill-opacity:0.106628;stroke:none;stroke-width:1.25373;stroke-dasharray:none;stroke-opacity:1"
       d="m 1621.3041,307.02255 c 0.086,-0.22446 87.9432,-154.57264 88.6322,-155.70986 0.3181,-0.52515 0.3874,-0.55518 0.9203,-0.39881 0.3169,0.093 1.3217,0.21968 2.2329,0.28149 l 1.6567,0.11239 v 77.97299 c 0,51.86259 -0.06,77.97298 -0.1791,77.97298 -0.119,0 -0.1791,-20.0004 -0.1791,-59.643 v -59.64301 l -12.4836,0.046 -12.4836,0.046 -3.1577,5.55224 c -3.3098,5.81988 -4.6714,8.21254 -17.9899,31.61194 -12.5073,21.97415 -16.2346,28.52234 -25.0287,43.97015 -1.6262,2.85672 -6.282,11.03732 -10.3461,18.17911 -4.0641,7.14179 -8.2728,14.53656 -9.3527,16.43283 -1.0798,1.89627 -2.0459,3.44776 -2.1468,3.44776 -0.101,0 -0.1436,-0.10403 -0.095,-0.23118 z"
       id="path4608" />
  </g>
</svg>
