<?xml version="1.0" encoding="UTF-8" standalone="no"?>
<!-- Created with Inkscape (http://www.inkscape.org/) -->

<svg
   width="800px"
   height="200px"
   viewBox="0 0 800 200"
   version="1.1"
   id="SVGRoot"
   sodipodi:docname="draw.svg"
   inkscape:version="1.2.1 (9c6d41e410, 2022-07-14)"
   inkscape:export-filename="draw.png"
   inkscape:export-xdpi="96"
   inkscape:export-ydpi="96"
   xml:space="preserve"
   xmlns:inkscape="http://www.inkscape.org/namespaces/inkscape"
   xmlns:sodipodi="http://sodipodi.sourceforge.net/DTD/sodipodi-0.dtd"
   xmlns="http://www.w3.org/2000/svg"
   xmlns:svg="http://www.w3.org/2000/svg"><sodipodi:namedview
     id="namedview443"
     pagecolor="#ffffff"
     bordercolor="#000000"
     borderopacity="0.25"
     inkscape:showpageshadow="2"
     inkscape:pageopacity="0.0"
     inkscape:pagecheckerboard="0"
     inkscape:deskcolor="#d1d1d1"
     inkscape:document-units="px"
     showgrid="false"
     inkscape:zoom="1.5281429"
     inkscape:cx="375.94652"
     inkscape:cy="114.19089"
     inkscape:window-width="1920"
     inkscape:window-height="991"
     inkscape:window-x="-9"
     inkscape:window-y="-9"
     inkscape:window-maximized="1"
     inkscape:current-layer="layer1" /><defs
     id="defs438"><rect
       x="603.14491"
       y="51.658244"
       width="166.14408"
       height="161.95558"
       id="rect524" /><rect
       x="36.300388"
       y="36.300388"
       width="615.71042"
       height="125.65519"
       id="rect624" /><rect
       x="36.300388"
       y="36.300388"
       width="615.71045"
       height="125.65519"
       id="rect624-3" /></defs><g
     inkscape:label="Capa 1"
     inkscape:groupmode="layer"
     id="layer1"><circle
       style="fill:#7c7c7c;fill-opacity:1;stroke:none;stroke-width:1.99937;stroke-dasharray:none"
       id="path5890-8"
       cx="556.89734"
       cy="108.20307"
       r="78.185448"
       inkscape:label="coin-back" /><text
       xml:space="preserve"
       id="text622"
       style="font-size:96px;font-family:'Brotthers Sans';-inkscape-font-specification:'Brotthers Sans';letter-spacing:3px;white-space:pre;shape-inside:url(#rect624);display:inline;fill:#383d3b;fill-opacity:1;stroke:none;stroke-width:2;stroke-opacity:1"
       transform="translate(8.45364,5.5846752)"><tspan
         x="36.300781"
         y="124.34039"
         id="tspan3324"><tspan
           style="font-family:Futura;-inkscape-font-specification:Futura"
           id="tspan3322">InfoBizum</tspan></tspan></text><circle
       style="fill:#d863ff;fill-opacity:1;stroke:none;stroke-width:1.99937;stroke-dasharray:none"
       id="path5890"
       cx="548.68823"
       cy="101.92032"
       r="78.185448"
       inkscape:label="coin" /><text
       xml:space="preserve"
       style="font-weight:bold;font-size:26.6667px;font-family:Inter;-inkscape-font-specification:'Inter Bold';fill:#383d3b;fill-opacity:1;stroke-width:1.99937"
       x="632.72052"
       y="187.80968"
       id="text402"><tspan
         sodipodi:role="line"
         id="tspan400"
         x="632.72052"
         y="187.80968"
         style="font-style:normal;font-variant:normal;font-weight:normal;font-stretch:normal;font-size:26.6667px;font-family:Futura;-inkscape-font-specification:Futura;fill:#383d3b;fill-opacity:1">by InfoChange</tspan></text><g
       style="fill:#ffffff"
       id="g2932"
       transform="matrix(5.2400565,1.8392106,-1.8392106,5.2400565,522.26192,45.941356)"><path
         d="m 10,3 a 1,1 0 0 1 1,1 v 8 a 1,1 0 0 1 -1,1 H 6 A 1,1 0 0 1 5,12 V 4 A 1,1 0 0 1 6,3 Z M 6,2 A 2,2 0 0 0 4,4 v 8 a 2,2 0 0 0 2,2 h 4 a 2,2 0 0 0 2,-2 V 4 A 2,2 0 0 0 10,2 Z"
         id="path2920"
         style="fill:#ffffff" /><path
         d="m 8,12 a 1,1 0 1 0 0,-2 1,1 0 0 0 0,2 M 1.599,4.058 A 0.5,0.5 0 0 1 1.807,4.734 7,7 0 0 0 1,8 c 0,1.18 0.292,2.292 0.807,3.266 A 0.50011999,0.50011999 0 0 1 0.923,11.734 8,8 0 0 1 0,8 C 0,6.653 0.334,5.381 0.923,4.266 A 0.5,0.5 0 0 1 1.599,4.058 m 12.802,0 A 0.5,0.5 0 0 1 15.077,4.266 8,8 0 0 1 16,8 8,8 0 0 1 15.077,11.734 0.50011999,0.50011999 0 0 1 14.193,11.266 7,7 0 0 0 15,8 C 15,6.82 14.708,5.708 14.193,4.734 A 0.5,0.5 0 0 1 14.401,4.058 M 3.057,5.534 A 0.5,0.5 0 0 1 3.341,6.182 5,5 0 0 0 3,8 C 3,8.642 3.12,9.255 3.34,9.818 A 0.5,0.5 0 1 1 2.41,10.182 6,6 0 0 1 2,8 C 2,7.231 2.145,6.495 2.41,5.818 A 0.5,0.5 0 0 1 3.057,5.534 m 9.886,0 a 0.5,0.5 0 0 1 0.648,0.284 C 13.855,6.495 14,7.231 14,8 14,8.769 13.855,9.505 13.59,10.182 A 0.5,0.5 0 0 1 12.66,9.818 C 12.88,9.255 13,8.642 13,8 13,7.358 12.88,6.745 12.66,6.182 a 0.5,0.5 0 0 1 0.283,-0.648"
         id="path2922"
         style="fill:#ffffff" /></g></g></svg>
